<?xml version="1.0" standalone="no"?>
<!DOCTYPE svg PUBLIC "-//W3C//DTD SVG 20010904//EN"
 "http://www.w3.org/TR/2001/REC-SVG-20010904/DTD/svg10.dtd">
<svg version="1.0" xmlns="http://www.w3.org/2000/svg"
 width="270.000000pt" height="270.000000pt" viewBox="0 0 270.000000 270.000000"
 preserveAspectRatio="xMidYMid meet">

<g transform="translate(0.000000,270.000000) scale(0.100000,-0.100000)"
fill="#000000" stroke="none">
<path d="M1220 2589 c-508 -52 -950 -433 -1076 -927 -138 -543 100 -1108 586
-1392 95 -55 202 -98 208 -82 2 6 8 12 14 12 6 0 8 -7 4 -15 -12 -31 204 -76
374 -77 211 -2 412 42 560 122 19 10 50 26 69 34 83 39 229 158 329 270 336
373 403 948 164 1395 -65 122 -114 185 -236 306 -139 138 -248 211 -410 274
-177 69 -399 100 -586 80z m150 -59 c0 -5 -4 -10 -10 -10 -5 0 -10 5 -10 10 0
6 5 10 10 10 6 0 10 -4 10 -10z m-365 -110 c3 -5 1 -10 -4 -10 -6 0 -11 5 -11
10 0 6 2 10 4 10 3 0 8 -4 11 -10z m787 -79 c-6 -64 34 -153 102 -228 61 -68
99 -94 153 -108 l44 -11 -56 -39 c-31 -21 -71 -56 -90 -79 -19 -23 -35 -35
-35 -28 0 7 -4 10 -10 7 -6 -4 -10 7 -10 27 -1 18 -11 52 -23 75 -23 44 -107
152 -119 153 -14 0 4 -77 32 -133 l28 -59 -47 7 c-50 7 -135 42 -181 75 -42
30 -44 25 -13 -31 30 -55 128 -151 181 -177 17 -9 32 -18 32 -21 0 -3 -29 -19
-63 -34 -35 -15 -86 -45 -114 -66 -28 -21 -55 -36 -60 -32 -6 3 -13 44 -16 91
-13 201 -109 395 -174 354 -27 -17 -26 -32 2 -27 34 7 55 -13 55 -53 0 -58
-66 -82 -131 -49 -36 19 -52 55 -39 90 5 13 35 44 67 67 31 24 75 61 98 83 22
21 47 38 55 36 8 -1 49 -37 90 -80 119 -124 116 -125 110 37 -3 76 -9 144 -13
152 -6 12 6 18 55 31 99 25 96 26 90 -30z m298 -71 c0 -5 -4 -10 -10 -10 -5 0
-10 5 -10 10 0 6 5 10 10 10 6 0 10 -4 10 -10z m82 -155 c-2 -19 -6 -35 -8
-35 -2 0 -4 16 -4 35 0 19 4 35 8 35 4 0 6 -16 4 -35z m-991 -151 c70 -35 103
-116 76 -185 -12 -30 -13 -39 -3 -39 27 0 64 -41 76 -85 9 -33 17 -45 29 -43
22 4 25 50 7 104 -13 38 -13 44 0 44 16 0 69 -68 95 -125 35 -75 21 -123 -43
-149 -69 -29 -110 -3 -211 134 -52 71 -87 62 -65 -17 6 -24 29 -56 62 -89 l53
-51 -81 -41 c-45 -23 -98 -51 -118 -63 -21 -13 -41 -20 -44 -16 -4 4 -2 24 4
46 22 71 11 144 -40 266 -43 100 -138 155 -190 108 -26 -23 -22 -30 12 -25 36
5 60 -12 60 -44 0 -35 -43 -58 -122 -65 -131 -12 -259 -101 -228 -158 7 -14
21 -21 41 -21 24 0 36 9 62 46 27 39 33 43 42 29 5 -10 25 -36 42 -59 l33 -41
-38 -5 c-49 -7 -61 -16 -78 -57 -23 -53 -5 -102 58 -157 29 -25 50 -47 47 -50
-2 -2 -44 -22 -92 -45 -49 -22 -107 -55 -129 -73 l-41 -32 6 169 c7 207 1 250
-44 287 -35 29 -67 35 -100 18 -26 -14 -25 -33 1 -25 13 4 31 0 45 -9 42 -28
28 -84 -25 -101 -29 -9 -87 22 -110 60 -48 77 -11 118 152 169 65 21 133 49
156 66 55 40 109 95 117 120 4 14 41 37 112 71 58 28 127 68 154 89 44 35 76
50 134 63 29 7 95 -3 126 -19z m1109 -49 c0 -21 -6 -35 -16 -39 -9 -4 -19 -5
-21 -2 -5 5 -7 42 -5 80 2 28 2 29 22 11 12 -11 20 -31 20 -50z m-1890 -25 c0
-5 -2 -10 -4 -10 -3 0 -8 5 -11 10 -3 6 -1 10 4 10 6 0 11 -4 11 -10z m1000
-10 c0 -5 -4 -10 -10 -10 -5 0 -10 5 -10 10 0 6 5 10 10 10 6 0 10 -4 10 -10z
m854 -16 c9 -3 16 -13 16 -21 0 -9 -6 -13 -15 -9 -10 4 -15 -1 -15 -14 0 -11
-4 -20 -9 -20 -16 0 -23 40 -11 55 14 17 13 17 34 9z m-424 -24 c0 -5 -5 -10
-11 -10 -5 0 -7 5 -4 10 3 6 8 10 11 10 2 0 4 -4 4 -10z m350 -31 c0 -10 -4
-19 -10 -19 -5 0 -10 12 -10 26 0 14 4 23 10 19 6 -3 10 -15 10 -26z m-38 -94
c-5 -31 -22 -44 -22 -18 0 15 17 43 26 43 1 0 -1 -11 -4 -25z m-212 -215 c0
-5 -4 -10 -10 -10 -5 0 -10 5 -10 10 0 6 5 10 10 10 6 0 10 -4 10 -10z m336
-83 c17 -10 18 -37 2 -38 -7 0 -3 -5 10 -11 17 -9 22 -19 22 -52 0 -81 -28
-117 -40 -50 -3 17 -11 29 -20 29 -11 0 -16 -14 -18 -52 -4 -66 -20 -69 -24
-5 -3 42 -5 45 -14 23 -10 -22 -11 -23 -18 -5 -4 11 -2 22 7 29 7 5 17 22 21
38 4 18 13 27 26 27 17 0 20 7 21 53 0 28 3 45 6 37 3 -8 12 -19 19 -23z
m-1456 -137 c0 -5 -4 -10 -10 -10 -5 0 -10 5 -10 10 0 6 5 10 10 10 6 0 10 -4
10 -10z m890 -25 c0 -15 6 -25 15 -25 8 0 12 -6 9 -14 -3 -8 2 -16 13 -19 15
-4 14 -5 -4 -6 -12 0 -26 -8 -31 -17 -6 -11 -11 -13 -16 -5 -4 6 -16 11 -27
11 -24 0 -24 6 1 32 11 12 20 32 20 45 0 13 5 23 10 23 6 0 10 -11 10 -25z
m399 -89 c-9 -8 -10 -5 -5 14 3 14 7 39 8 55 1 20 3 16 5 -14 3 -26 -1 -48 -8
-55z m-719 20 c0 -3 -4 -8 -10 -11 -5 -3 -10 -1 -10 4 0 6 5 11 10 11 6 0 10
-2 10 -4z m185 -112 c3 -43 1 -92 -4 -109 -7 -22 -10 0 -10 84 -1 130 6 143
14 25z m173 -27 l37 -3 -32 -8 c-22 -6 -35 -17 -41 -35 l-10 -26 -11 28 c-8
20 -18 27 -38 28 l-28 1 31 9 c22 6 34 17 40 37 l8 27 4 -27 c3 -23 9 -27 40
-31z m452 19 c0 -3 -4 -8 -10 -11 -5 -3 -10 -1 -10 4 0 6 5 11 10 11 6 0 10
-2 10 -4z m-4 -103 c-10 -10 -19 5 -10 18 6 11 8 11 12 0 2 -7 1 -15 -2 -18z
m-473 -28 c-5 -30 -2 -36 18 -44 l24 -10 -23 0 c-14 -1 -26 -9 -31 -23 l-8
-22 -5 22 c-5 17 -14 22 -40 23 l-33 1 30 7 c24 5 31 12 33 36 4 27 16 44 34
45 4 0 4 -16 1 -35z m-143 -110 c0 -30 -4 -55 -10 -55 -5 0 -10 25 -10 55 0
30 5 55 10 55 6 0 10 -25 10 -55z m140 -70 c0 -7 7 -16 16 -19 8 -3 13 -10 10
-15 -4 -5 0 -11 6 -14 9 -3 6 -8 -7 -13 -11 -4 -23 -12 -28 -18 -5 -7 -11 -5
-18 7 -5 9 -17 17 -25 17 -12 0 -12 4 -2 19 9 15 15 17 25 9 8 -6 17 -7 21 -3
4 4 1 10 -5 12 -7 3 -13 14 -13 24 0 11 5 17 10 14 6 -3 10 -12 10 -20z m-250
1 c0 -3 -4 -8 -10 -11 -5 -3 -10 -1 -10 4 0 6 5 11 10 11 6 0 10 -2 10 -4z
m-115 -45 c3 -5 1 -12 -5 -16 -5 -3 -10 1 -10 9 0 18 6 21 15 7z m855 -11 c0
-5 -4 -10 -10 -10 -5 0 -10 5 -10 10 0 6 5 10 10 10 6 0 10 -4 10 -10z m-826
-15 c-4 -8 -8 -15 -10 -15 -2 0 -4 7 -4 15 0 8 4 15 10 15 5 0 7 -7 4 -15z
m-369 -495 c3 -5 -1 -10 -9 -10 -9 0 -16 5 -16 10 0 6 4 10 9 10 6 0 13 -4 16
-10z m165 0 c0 -5 -2 -10 -4 -10 -3 0 -8 5 -11 10 -3 6 -1 10 4 10 6 0 11 -4
11 -10z"/>
<path d="M983 1884 c-9 -25 23 -77 70 -112 45 -36 59 -39 77 -18 9 12 8 22 -5
50 -35 73 -125 123 -142 80z"/>
</g>
</svg>
